<svg width="512" height="512" viewBox="0 0 512 512" fill="none" xmlns="http://www.w3.org/2000/svg">
<rect width="512" height="512" fill="#21262C"/>
<path d="M109.008 220.789V197.449L52.8555 177.332L46.8984 175.281L52.8555 173.133L109.008 152.82V129.48L24.1445 165.711V184.461L109.008 220.789Z" fill="#909296"/>
<path d="M176.895 238.953C187.181 238.953 195.938 236.935 203.164 232.898C210.456 228.862 215.859 224.305 219.375 219.227L206.875 207.117C203.62 211.284 199.486 214.507 194.473 216.785C189.46 218.999 184.056 220.105 178.262 220.105C174.03 220.105 170.124 219.389 166.543 217.957C163.027 216.525 159.967 214.507 157.363 211.902C154.759 209.428 152.708 206.629 151.211 203.504C149.714 200.379 148.607 196.505 147.891 191.883V191.395H221.133V181.336C221.133 173.784 220.124 166.818 218.105 160.438C216.087 154.057 213.092 148.556 209.121 143.934C205.15 139.376 200.234 135.828 194.375 133.289C188.516 130.685 181.777 129.383 174.16 129.383C167.324 129.383 160.879 130.685 154.824 133.289C148.835 135.828 143.561 139.474 139.004 144.227C134.447 148.979 130.866 154.708 128.262 161.414C125.658 168.12 124.355 175.607 124.355 183.875V187.879C124.355 195.105 125.592 201.844 128.066 208.094C130.605 214.279 134.186 219.65 138.809 224.207C143.431 228.829 148.965 232.443 155.41 235.047C161.921 237.651 169.082 238.953 176.895 238.953ZM174.062 148.328C177.969 148.328 181.387 149.012 184.316 150.379C187.311 151.681 189.785 153.439 191.738 155.652C193.757 157.931 195.319 160.6 196.426 163.66C197.533 166.655 198.086 169.682 198.086 172.742V174.305H148.379C149.095 170.268 150.202 166.655 151.699 163.465C153.197 160.275 155.052 157.54 157.266 155.262C159.479 153.048 161.986 151.355 164.785 150.184C167.65 148.947 170.742 148.328 174.062 148.328ZM268.023 191.004L301.715 237H330.621L283.551 175.379L324.664 131.336H296.539L264.996 164.539L255.328 175.281V87H231.891V237H255.328V203.016L268.023 191.004Z" fill="#E9AA33"/>
<path d="M101.375 328.289V330.34C101.375 337.957 102.319 345.053 104.207 351.629C106.095 358.139 108.829 363.803 112.41 368.621C115.991 373.439 120.353 377.215 125.496 379.949C130.704 382.618 136.661 383.953 143.367 383.953C146.622 383.953 149.65 383.628 152.449 382.977C155.249 382.391 157.853 381.512 160.262 380.34C162.15 379.428 163.908 378.354 165.535 377.117C167.228 375.815 168.79 374.35 170.223 372.723V422.625H193.66V276.336H172.762L171.492 286.98C170.125 285.353 168.66 283.855 167.098 282.488C165.535 281.121 163.875 279.949 162.117 278.973C159.513 277.475 156.648 276.336 153.523 275.555C150.464 274.773 147.143 274.383 143.562 274.383C136.792 274.383 130.77 275.717 125.496 278.387C120.288 280.991 115.926 284.637 112.41 289.324C108.764 294.077 105.997 299.773 104.109 306.414C102.286 313.055 101.375 320.346 101.375 328.289ZM124.715 330.34V328.289C124.715 323.536 125.171 319.044 126.082 314.812C127.059 310.581 128.589 306.87 130.672 303.68C132.625 300.555 135.132 298.048 138.191 296.16C141.316 294.272 145.06 293.328 149.422 293.328C151.896 293.328 154.174 293.621 156.258 294.207C158.406 294.728 160.327 295.509 162.02 296.551C163.777 297.592 165.307 298.829 166.609 300.262C167.977 301.694 169.181 303.289 170.223 305.047V353.094C169.181 354.917 167.977 356.609 166.609 358.172C165.242 359.669 163.68 360.939 161.922 361.98C160.164 362.957 158.243 363.738 156.16 364.324C154.077 364.845 151.766 365.105 149.227 365.105C144.865 365.105 141.121 364.194 137.996 362.371C134.936 360.483 132.43 357.944 130.477 354.754C128.523 351.564 127.059 347.885 126.082 343.719C125.171 339.487 124.715 335.027 124.715 330.34ZM255.395 250.555H231.957V276.336H206.371V293.816H231.957V345.77C231.957 352.54 232.836 358.335 234.594 363.152C236.417 367.97 238.923 371.909 242.113 374.969C245.303 378.094 249.112 380.405 253.539 381.902C258.031 383.335 262.947 384.051 268.285 384.051C271.215 384.051 274.145 383.888 277.074 383.562C280.069 383.302 282.934 382.911 285.668 382.391C288.402 381.87 290.941 381.251 293.285 380.535C295.694 379.754 297.745 378.842 299.438 377.801L296.898 361.688C295.727 361.948 294.262 362.273 292.504 362.664C290.811 362.99 288.988 363.283 287.035 363.543C285.017 363.868 282.934 364.129 280.785 364.324C278.637 364.52 276.553 364.617 274.535 364.617C271.736 364.617 269.164 364.292 266.82 363.641C264.477 362.99 262.458 361.883 260.766 360.32C259.073 358.823 257.738 356.772 256.762 354.168C255.85 351.499 255.395 348.211 255.395 344.305V293.816H295.141V276.336H255.395V250.555Z" fill="#E9AA33"/>
<path d="M341.738 394.207L397.5 239.812H376.113L320.254 394.207H341.738ZM404.023 365.789L491.23 329.461V310.613L404.023 274.383V297.527L463.105 318.035L468.965 319.988L463.008 321.746L404.023 342.645V365.789Z" fill="#909296"/>
</svg>
