<svg width="457" height="122" viewBox="0 0 457 122" fill="none" xmlns="http://www.w3.org/2000/svg">
<path d="M54.595 85.625V70.6875L18.6575 57.8125L14.845 56.5L18.6575 55.125L54.595 42.125V27.1875L0.282501 50.375V62.375L54.595 85.625ZM351.645 103.812L387.332 5H373.645L337.895 103.812H351.645ZM400.467 85.625L456.28 62.375V50.3125L400.467 27.125V41.9375L438.28 55.0625L442.03 56.3125L438.217 57.4375L400.467 70.8125V85.625Z" fill="#646A72"/>
<path d="M98.0425 97.25C104.626 97.25 110.23 95.9583 114.855 93.375C119.522 90.7917 122.98 87.875 125.23 84.625L117.23 76.875C115.147 79.5417 112.501 81.6042 109.293 83.0625C106.084 84.4792 102.626 85.1875 98.9175 85.1875C96.2092 85.1875 93.7092 84.7292 91.4175 83.8125C89.1675 82.8958 87.2092 81.6042 85.5425 79.9375C83.8758 78.3542 82.5633 76.5625 81.605 74.5625C80.6467 72.5625 79.9383 70.0833 79.48 67.125V66.8125H126.355V60.375C126.355 55.5417 125.709 51.0833 124.418 47C123.126 42.9167 121.209 39.3958 118.668 36.4375C116.126 33.5208 112.98 31.25 109.23 29.625C105.48 27.9583 101.168 27.125 96.2925 27.125C91.9175 27.125 87.7925 27.9583 83.9175 29.625C80.0842 31.25 76.7092 33.5833 73.7925 36.625C70.8758 39.6667 68.5842 43.3333 66.9175 47.625C65.2508 51.9167 64.4175 56.7083 64.4175 62V64.5625C64.4175 69.1875 65.2092 73.5 66.7925 77.5C68.4175 81.4583 70.7092 84.8958 73.6675 87.8125C76.6258 90.7708 80.1675 93.0833 84.2925 94.75C88.4592 96.4167 93.0425 97.25 98.0425 97.25ZM96.23 39.25C98.73 39.25 100.918 39.6875 102.793 40.5625C104.709 41.3958 106.293 42.5208 107.543 43.9375C108.834 45.3958 109.834 47.1042 110.543 49.0625C111.251 50.9792 111.605 52.9167 111.605 54.875V55.875H79.7925C80.2508 53.2917 80.9592 50.9792 81.9175 48.9375C82.8758 46.8958 84.0633 45.1458 85.48 43.6875C86.8967 42.2708 88.5008 41.1875 90.2925 40.4375C92.1258 39.6458 94.105 39.25 96.23 39.25ZM156.365 66.5625L177.928 96H196.428L166.303 56.5625L192.615 28.375H174.615L154.428 49.625L148.24 56.5V0H133.24V96H148.24V74.25L156.365 66.5625ZM197.812 61.625V62.9375C197.812 67.8125 198.417 72.3542 199.625 76.5625C200.833 80.7292 202.583 84.3542 204.875 87.4375C207.167 90.5208 209.958 92.9375 213.25 94.6875C216.583 96.3958 220.396 97.25 224.688 97.25C226.771 97.25 228.708 97.0417 230.5 96.625C232.292 96.25 233.958 95.6875 235.5 94.9375C236.708 94.3542 237.833 93.6667 238.875 92.875C239.958 92.0417 240.958 91.1042 241.875 90.0625V122H256.875V28.375H243.5L242.688 35.1875C241.812 34.1458 240.875 33.1875 239.875 32.3125C238.875 31.4375 237.812 30.6875 236.688 30.0625C235.021 29.1042 233.188 28.375 231.188 27.875C229.229 27.375 227.104 27.125 224.812 27.125C220.479 27.125 216.625 27.9792 213.25 29.6875C209.917 31.3542 207.125 33.6875 204.875 36.6875C202.542 39.7292 200.771 43.375 199.562 47.625C198.396 51.875 197.812 56.5417 197.812 61.625ZM212.75 62.9375V61.625C212.75 58.5833 213.042 55.7083 213.625 53C214.25 50.2917 215.229 47.9167 216.562 45.875C217.812 43.875 219.417 42.2708 221.375 41.0625C223.375 39.8542 225.771 39.25 228.562 39.25C230.146 39.25 231.604 39.4375 232.938 39.8125C234.312 40.1458 235.542 40.6458 236.625 41.3125C237.75 41.9792 238.729 42.7708 239.562 43.6875C240.438 44.6042 241.208 45.625 241.875 46.75V77.5C241.208 78.6667 240.438 79.75 239.562 80.75C238.688 81.7083 237.688 82.5208 236.562 83.1875C235.438 83.8125 234.208 84.3125 232.875 84.6875C231.542 85.0208 230.062 85.1875 228.438 85.1875C225.646 85.1875 223.25 84.6042 221.25 83.4375C219.292 82.2292 217.688 80.6042 216.438 78.5625C215.188 76.5208 214.25 74.1667 213.625 71.5C213.042 68.7917 212.75 65.9375 212.75 62.9375ZM296.385 11.875H281.385V28.375H265.01V39.5625H281.385V72.8125C281.385 77.1458 281.948 80.8542 283.073 83.9375C284.239 87.0208 285.843 89.5417 287.885 91.5C289.927 93.5 292.364 94.9792 295.198 95.9375C298.073 96.8542 301.218 97.3125 304.635 97.3125C306.51 97.3125 308.385 97.2083 310.26 97C312.177 96.8333 314.01 96.5833 315.76 96.25C317.51 95.9167 319.135 95.5208 320.635 95.0625C322.177 94.5625 323.489 93.9792 324.573 93.3125L322.948 83C322.198 83.1667 321.26 83.375 320.135 83.625C319.052 83.8333 317.885 84.0208 316.635 84.1875C315.343 84.3958 314.01 84.5625 312.635 84.6875C311.26 84.8125 309.927 84.875 308.635 84.875C306.843 84.875 305.198 84.6667 303.698 84.25C302.198 83.8333 300.906 83.125 299.823 82.125C298.739 81.1667 297.885 79.8542 297.26 78.1875C296.677 76.4792 296.385 74.375 296.385 71.875V39.5625H321.823V28.375H296.385V11.875Z" fill="#161E26"/>
</svg>
